<?xml version="1.0" encoding="UTF-8" standalone="no"?>
<!-- Created with Inkscape (http://www.inkscape.org/) -->

<svg
   width="3840"
   height="2160"
   viewBox="0 0 3840 2160"
   version="1.1"
   id="svg5"
   inkscape:export-filename="elephant_pattern.png"
   inkscape:export-xdpi="96"
   inkscape:export-ydpi="96"
   inkscape:version="1.2.1 (9c6d41e410, 2022-07-14)"
   sodipodi:docname="penguin_elephant_fox_llama_pattern.svg"
   xmlns:inkscape="http://www.inkscape.org/namespaces/inkscape"
   xmlns:sodipodi="http://sodipodi.sourceforge.net/DTD/sodipodi-0.dtd"
   xmlns:xlink="http://www.w3.org/1999/xlink"
   xmlns="http://www.w3.org/2000/svg"
   xmlns:svg="http://www.w3.org/2000/svg">
  <sodipodi:namedview
     id="namedview7"
     pagecolor="#7a7a7a"
     bordercolor="#000000"
     borderopacity="0.25"
     inkscape:showpageshadow="2"
     inkscape:pageopacity="0"
     inkscape:pagecheckerboard="true"
     inkscape:deskcolor="#5a5a5a"
     inkscape:document-units="px"
     showgrid="false"
     inkscape:zoom="0.2"
     inkscape:cx="1795"
     inkscape:cy="1157.5"
     inkscape:window-width="1920"
     inkscape:window-height="1057"
     inkscape:window-x="-8"
     inkscape:window-y="-8"
     inkscape:window-maximized="1"
     inkscape:current-layer="layer1" />
  <defs
     id="defs2">
    <rect
       x="-841.22283"
       y="-619.45918"
       width="629.65648"
       height="541.16654"
       id="rect467" />
    <filter
       inkscape:collect="always"
       style="color-interpolation-filters:sRGB"
       id="filter2685"
       x="-0.027264608"
       y="-0.032532587"
       width="1.0545292"
       height="1.0650652">
      <feGaussianBlur
         inkscape:collect="always"
         stdDeviation="1.0865905"
         id="feGaussianBlur2687" />
    </filter>
  </defs>
  <g
     inkscape:label="Layer 1"
     inkscape:groupmode="layer"
     id="layer1">
    <rect
       style="fill:#1e1e2e;fill-opacity:1;stroke-width:215.088"
       id="rect1369"
       width="4088.8892"
       height="2300"
       x="-56.491039"
       y="-34.969734"
       inkscape:label="canvas"
       sodipodi:insensitive="true" />
    <text
       xml:space="preserve"
       id="text465"
       style="font-size:21.3333px;white-space:pre;shape-inside:url(#rect467);display:inline;fill:#0000ff;stroke-width:3.5" />
    <g
       id="g16373">
      <path
         id="path2438-9"
         style="font-size:8.98246px;font-family:'CaskaydiaCove Nerd Font Mono';-inkscape-font-specification:'CaskaydiaCove Nerd Font Mono';fill:#6a6f87;stroke-width:16.084;filter:url(#filter2685);fill-opacity:1;stroke:none"
         d="m -318.12109,1.8652347 v 0.8144531 h 3.45117 V 1.8652347 Z m 4.89843,0 v 0.8144531 h 3.50977 V 1.8652347 Z m 4.95704,0 v 0.8144531 h 3.47851 V 1.8652347 Z m -14.18946,2.4023437 -0.34961,3.0273438 h 0.8418 l 0.52539,-3.0273438 z m 21.05274,0 -0.35157,3.0273438 h 0.84375 l 0.52539,-3.0273438 z m -49.08789,1.1132813 v 0.8164062 h 4.91211 5.39453 5.26367 5.26367 4.60547 V 5.3808597 h -4.60547 -5.26367 -5.26367 -5.39453 z m 52.63281,0 v 0.8164062 h 4.91211 5.39453 5.26367 5.26172 4.60547 V 5.3808597 h -4.60547 -5.26172 -5.26367 -5.39453 z m -54.3086,4.2656252 -3.52539,7.8945311 h 0.92969 l 3.52539,-7.8945311 z m 26.31641,0 -3.52539,7.8945311 h 0.92969 l 3.52539,-7.8945311 z m 27.85938,0 3.52734,7.8945311 h 0.92969 l -3.52735,-7.8945311 z m 26.3164,0 3.52539,7.8945311 h 0.92969 l -3.52539,-7.8945311 z M -359.2793,20.447266 v 8.947265 h 0.91211 v -8.947265 z m 94.73633,0 v 8.947265 h 0.91211 v -8.947265 z m -67.01758,0.457031 c -0.95176,0 -1.67544,0.569285 -1.5,1.542969 0.0877,0.504385 0.35938,0.939522 0.35938,1.474609 0,0.429825 -0.89447,0.669922 -1.35938,0.669922 v 0.693359 c 0.48245,0 1.35938,0.131272 1.35938,0.591797 0,0.513158 -0.27166,0.970224 -0.35938,1.474609 -0.17983,1.013157 0.54824,1.623047 1.5,1.623047 0.3421,0 0.55312,-0.03526 0.7461,-0.08789 l -0.10547,-0.763672 c -0.20614,0.02632 -0.39827,0.04297 -0.56055,0.04297 -0.41667,0 -0.73272,-0.29691 -0.64062,-0.814454 0.0877,-0.495613 0.37695,-0.926329 0.37695,-1.457031 0,-0.535087 -0.49089,-0.867702 -1.32422,-0.880859 v -0.148438 c 0.83333,-0.01316 1.32422,-0.355675 1.32422,-0.960937 0,-0.508772 -0.28923,-0.939488 -0.37695,-1.457031 -0.0789,-0.464912 0.22395,-0.736328 0.64062,-0.736328 0.16228,0 0.35441,0.01665 0.56055,0.04297 l 0.10547,-0.761718 c -0.19298,-0.05263 -0.404,-0.08789 -0.7461,-0.08789 z m 40.21094,0 c -0.3421,0 -0.55311,0.03526 -0.74609,0.08789 l 0.10547,0.761718 c 0.20614,-0.02632 0.40022,-0.04297 0.5625,-0.04297 0.41667,0 0.71957,0.271416 0.64062,0.736328 -0.0877,0.517543 -0.37891,0.948259 -0.37891,1.457031 0,0.605262 0.49285,0.947779 1.32618,0.960937 v 0.148438 c -0.83333,0.01316 -1.32618,0.345772 -1.32618,0.880859 0,0.530702 0.2912,0.961418 0.37891,1.457031 0.0921,0.517544 -0.22395,0.814454 -0.64062,0.814454 -0.16228,0 -0.35636,-0.01665 -0.5625,-0.04297 l -0.10547,0.763672 c 0.19298,0.05263 0.40399,0.08789 0.74609,0.08789 0.95176,0 1.67983,-0.60989 1.5,-1.623047 -0.0877,-0.504385 -0.35937,-0.961451 -0.35937,-1.474609 0,-0.460525 0.87692,-0.591797 1.35937,-0.591797 v -0.693359 c -0.46491,0 -1.35937,-0.240097 -1.35937,-0.669922 0,-0.535087 0.27165,-0.970224 0.35937,-1.474609 0.17544,-0.973684 -0.54824,-1.542969 -1.5,-1.542969 z m -64.53516,11.396484 3.52735,7.894531 h 0.92969 l -3.52735,-7.894531 z m 26.31641,0 3.52539,7.894531 h 0.92969 l -3.52539,-7.894531 z m 35.29883,0 -3.52735,7.894531 h 0.92969 l 3.52735,-7.894531 z m 26.31445,0 -3.52539,7.894531 h 0.92969 l 3.52539,-7.894531 z m -82.53515,7.060547 v 0.816406 h 4.38671 v -0.816406 z m 73.68554,0 v 0.816406 h 4.38477 v -0.816406 z m -40.36914,3.740234 v 8.947266 h 0.91211 v -8.947266 z m 10.52539,0 v 8.947266 h 0.91211 v -8.947266 z m -38.70898,0.525391 3.52539,7.894531 h 0.92969 l -3.52539,-7.894531 z m 19.50781,0 -3.52539,7.894531 h 0.92969 l 3.52539,-7.894531 z m 1.54492,0 3.52539,7.894531 h 0.92969 l -3.52539,-7.894531 z m 24.77149,0 -3.52735,7.894531 h 0.92969 l 3.52734,-7.894531 z m 1.54297,0 3.52734,7.894531 h 0.92969 l -3.52735,-7.894531 z m 19.50976,0 -3.52734,7.894531 h 0.92969 l 3.52734,-7.894531 z m -56.01758,1.78125 v 0.964844 l 3.07032,1.166015 v 0.08008 l -3.07032,1.166015 V 49.75 l 4.20117,-1.728516 v -0.884765 z m 46.08789,0 -4.20312,1.728516 v 0.884765 l 4.20312,1.728516 v -0.964844 l -3.24609,-1.166015 v -0.08008 l 3.24609,-1.166015 z m -51.55273,5.28125 v 0.814453 h 4.38477 v -0.814453 z m 52.63086,0 v 0.814453 h 4.38672 v -0.814453 z m -29.8418,3.738281 V 63.375 h 0.91211 v -8.947266 z m 10.52539,0 V 63.375 h 0.91211 v -8.947266 z m -24.46484,0.527344 -3.52539,7.894531 h 0.92969 l 3.52539,-7.894531 z m 10.52734,0 -3.52734,7.894531 h 0.92969 l 3.52734,-7.894531 z m 17.33203,0 3.52735,7.894531 h 0.92968 l -3.52539,-7.894531 z m 10.52735,0 3.52539,7.894531 h 0.93164 l -3.52735,-7.894531 z m -55.57032,5.84961 c -0.35964,0 -0.64843,0.290741 -0.64843,0.65039 0,0.359649 0.28879,0.648438 0.64843,0.648438 0.35965,0 0.64844,-0.288789 0.64844,-0.648438 0,-0.359649 -0.28879,-0.65039 -0.64844,-0.65039 z m 73.6836,0 c -0.35965,0 -0.64844,0.290741 -0.64844,0.65039 0,0.359649 0.28879,0.648438 0.64844,0.648438 0.35965,0 0.65039,-0.288789 0.65039,-0.648438 0,-0.359649 -0.29074,-0.65039 -0.65039,-0.65039 z m -70.61328,1.210937 v 0.816406 h 4.91211 4.73633 v -0.816406 h -4.73633 z m 57.89453,0 v 0.816406 h 4.91211 4.73633 v -0.816406 h -4.73633 z m -29.8418,3.738281 v 8.949219 h 0.91211 v -8.949219 z m 10.52539,0 v 8.949219 h 0.91211 v -8.949219 z m -36.97656,1.361328 -1.14062,2.63086 h 0.96484 l 0.72851,-1.929688 h 0.0781 l 0.72852,1.929688 h 0.96484 l -1.14063,-2.63086 z m 15.87109,0 0.0879,2.806641 h 0.84375 l 0.0859,-2.806641 z m 31.58008,0 0.0879,2.806641 h 0.8418 l 0.0879,-2.806641 z m 15.70508,0 -1.13867,2.63086 h 0.96484 l 0.72656,-1.929688 h 0.0801 l 0.72852,1.929688 h 0.96484 l -1.14062,-2.63086 z m -58.70508,2.708985 v 0.816406 h 3.46485 v -0.816406 z m 4.60547,0 v 0.816406 h 3.46484 v -0.816406 z m 42.76367,0 v 0.816406 h 3.46485 v -0.816406 z m 4.60352,0 v 0.816406 h 3.46484 v -0.816406 z m -26.44727,3.517578 v 0.816406 h 4.38672 v -0.816406 z m -3.52539,2.898437 v 5.785157 h 3.54297 4.35156 0.91211 2.63086 v -5.785157 h -0.91211 v 4.871094 h -1.71875 -0.91211 -4.35156 -2.63086 v -4.871094 z"
         transform="matrix(0.75534645,0,0,0.75088313,-88.143522,0.21548614)" />
      <path
         id="path2438"
         style="font-size:8.98246px;font-family:'CaskaydiaCove Nerd Font Mono';-inkscape-font-specification:'CaskaydiaCove Nerd Font Mono';fill:#00fbad;fill-opacity:1;stroke-width:12.113;stroke:none"
         d="M -329.19028,0.86500004 V 1.4765591 h 2.60684 V 0.86500004 Z m 3.70001,0 V 1.4765591 h 2.6511 V 0.86500004 Z m 3.74429,0 V 1.4765591 h 2.62747 V 0.86500004 Z m -10.71796,1.80387926 -0.26408,2.2731815 h 0.63585 l 0.39686,-2.2731815 z m 15.90211,0 -0.26555,2.2731815 h 0.63732 l 0.39686,-2.2731815 z m -37.07837,0.8359442 v 0.6130258 h 3.71035 4.07475 3.97589 3.97589 3.47873 V 3.5048235 h -3.47873 -3.97589 -3.97589 -4.07475 z m 39.75601,0 v 0.6130258 h 3.71035 4.07473 3.9759 3.97442 3.47873 V 3.5048235 h -3.47873 -3.97442 -3.9759 -4.07473 z m -41.0218,3.2029859 -2.66289,5.9278706 h 0.70224 l 2.66288,-5.9278706 z m 19.87801,0 -2.6629,5.9278706 h 0.70224 l 2.6629,-5.9278706 z m 21.04348,0 2.66435,5.9278706 h 0.70226 l -2.66439,-5.9278706 z m 19.878,0 2.66289,5.9278706 h 0.70223 l -2.66288,-5.9278706 z m -66.17249,8.1101246 v 6.718351 h 0.68897 v -6.718351 z m 71.55875,0 v 6.718351 h 0.68896 v -6.718351 z m -50.62149,0.343177 c -0.7189,0 -1.26553,0.427466 -1.13301,1.15859 0.0662,0.378734 0.27145,0.705471 0.27145,1.107258 0,0.32275 -0.67564,0.503034 -1.0268,0.503034 v 0.520631 c 0.36441,0 1.0268,0.09858 1.0268,0.44437 0,0.385323 -0.2052,0.728526 -0.27145,1.10726 -0.13585,0.760763 0.41411,1.218718 1.13301,1.218718 0.2584,0 0.41781,-0.02648 0.56357,-0.066 l -0.0797,-0.573428 c -0.15562,0.01977 -0.30084,0.03227 -0.4234,0.03227 -0.31473,0 -0.55346,-0.222944 -0.48389,-0.611559 0.0662,-0.372147 0.28472,-0.695564 0.28472,-1.09406 0,-0.401787 -0.37079,-0.651542 -1.00024,-0.661422 v -0.111467 c 0.62945,-0.0099 1.00024,-0.267071 1.00024,-0.721553 0,-0.382028 -0.21847,-0.705444 -0.28472,-1.09406 -0.0596,-0.349093 0.16916,-0.552896 0.48389,-0.552896 0.12261,0 0.2677,0.01247 0.4234,0.03227 l 0.0797,-0.571962 c -0.14573,-0.03952 -0.30517,-0.06599 -0.56357,-0.06599 z m 30.37319,0 c -0.25841,0 -0.41778,0.02648 -0.56355,0.066 l 0.0797,0.571962 c 0.15562,-0.01977 0.3023,-0.03227 0.42489,-0.03227 0.31472,0 0.54351,0.203802 0.48388,0.552897 -0.0662,0.388613 -0.28621,0.712031 -0.28621,1.094057 0,0.454482 0.37228,0.711672 1.00173,0.721552 v 0.111451 c -0.62945,0.0099 -1.00173,0.259636 -1.00173,0.661423 0,0.398495 0.21996,0.721913 0.28621,1.09406 0.0695,0.388615 -0.16916,0.611561 -0.48388,0.611561 -0.12262,0 -0.26919,-0.01247 -0.42489,-0.03227 l -0.0797,0.57343 c 0.14574,0.03952 0.30514,0.066 0.56355,0.066 0.71891,0 1.26886,-0.457955 1.13302,-1.218718 -0.0662,-0.378734 -0.27145,-0.721937 -0.27145,-1.107258 0,-0.345801 0.66239,-0.444372 1.0268,-0.444372 v -0.520631 c -0.35117,0 -1.0268,-0.180284 -1.0268,-0.503035 0,-0.401787 0.2052,-0.728523 0.27145,-1.107259 0.1325,-0.731123 -0.41411,-1.158588 -1.13302,-1.158588 z m -48.74639,8.557428 2.66436,5.927871 h 0.70224 l -2.66437,-5.927871 z m 19.87799,0 2.6629,5.927871 h 0.70224 l -2.6629,-5.927871 z m 26.66285,0 -2.66437,5.927871 h 0.70224 l 2.66437,-5.927871 z m 19.87653,0 -2.6629,5.927871 h 0.70225 l 2.66289,-5.927871 z m -62.34264,5.301646 v 0.613024 h 3.31349 v -0.613024 z m 55.65812,0 v 0.613024 h 3.31202 v -0.613024 z m -30.49268,2.808479 v 6.71835 h 0.68895 v -6.71835 z m 7.95031,0 v 6.71835 h 0.68896 v -6.71835 z m -29.2387,0.394507 2.6629,5.927869 h 0.70224 l -2.66289,-5.927869 z m 14.73517,0 -2.6629,5.927869 h 0.70224 l 2.6629,-5.927869 z m 1.16694,0 2.6629,5.927869 h 0.70223 l -2.66288,-5.927869 z m 18.71106,0 -2.66437,5.927869 h 0.70224 l 2.66436,-5.927869 z m 1.16548,0 2.66435,5.927869 h 0.70226 l -2.66439,-5.927869 z m 14.73662,0 -2.66436,5.927869 h 0.70223 l 2.66437,-5.927869 z m -42.31268,1.337509 v 0.724485 l 2.31915,0.875542 v 0.06013 l -2.31915,0.87554 v 0.724485 l 3.17335,-1.297914 v -0.664355 z m 34.81233,0 -3.17481,1.297914 v 0.664355 l 3.17481,1.297914 v -0.724485 l -2.45193,-0.875541 v -0.06013 l 2.45193,-0.875541 z m -38.94017,3.965602 v 0.611559 h 3.31201 v -0.611559 z m 39.75453,0 v 0.611559 h 3.31349 v -0.611559 z m -22.54089,2.807012 v 6.718352 h 0.68895 v -6.718352 z m 7.95031,0 v 6.718352 h 0.68896 v -6.718352 z m -18.47944,0.395974 -2.66288,5.92787 h 0.70223 l 2.6629,-5.92787 z m 7.9518,0 -2.66436,5.92787 h 0.70223 l 2.66437,-5.92787 z m 13.09169,0 2.66436,5.92787 h 0.70224 l -2.66289,-5.92787 z m 7.9518,0 2.66288,5.92787 h 0.70372 l -2.66438,-5.92787 z m -41.97485,4.392373 c -0.27165,0 -0.48979,0.218313 -0.48979,0.488367 0,0.270056 0.21814,0.486902 0.48979,0.486902 0.27166,0 0.48979,-0.216846 0.48979,-0.486902 0,-0.270054 -0.21813,-0.488367 -0.48979,-0.488367 z m 55.65664,0 c -0.27166,0 -0.4898,0.218313 -0.4898,0.488367 0,0.270056 0.21814,0.486902 0.4898,0.486902 0.27167,0 0.49126,-0.216846 0.49126,-0.486902 0,-0.270054 -0.21959,-0.488367 -0.49126,-0.488367 z m -53.33749,0.909273 v 0.613026 h 3.71034 3.57757 v -0.613026 h -3.57757 z m 43.73043,0 v 0.613026 h 3.71035 3.57757 v -0.613026 h -3.57757 z m -22.54089,2.807012 v 6.719818 h 0.68895 v -6.719818 z m 7.95031,0 v 6.719818 h 0.68896 v -6.719818 z m -27.93012,1.022198 -0.86156,1.975469 h 0.72878 l 0.55028,-1.44897 h 0.059 l 0.55028,1.44897 h 0.7288 l -0.86158,-1.975469 z m 11.98817,0 0.0663,2.10746 h 0.63733 l 0.0649,-2.10746 z m 23.85391,0 0.0663,2.10746 h 0.63586 l 0.0663,-2.10746 z m 11.86277,0 -0.86008,1.975469 h 0.72879 l 0.54879,-1.44897 h 0.0606 l 0.55028,1.44897 h 0.7288 l -0.86157,-1.975469 z m -44.34267,2.034131 v 0.613026 h 2.61716 v -0.613026 z m 3.47873,0 v 0.613026 h 2.61715 v -0.613026 z m 32.30138,0 v 0.613026 h 2.61717 v -0.613026 z m 3.47726,0 v 0.613026 h 2.61715 v -0.613026 z m -19.97686,2.641291 v 0.613026 h 3.3135 v -0.613026 z m -2.66288,2.176386 v 4.343978 h 2.67616 3.28694 0.68895 1.98722 v -4.343978 h -0.68896 v 3.657623 h -1.29826 -0.68895 -3.28694 -1.98721 v -3.657623 z" />
    </g>
    <g
       id="g16369"
       inkscape:label="color palette whale">
      <rect
         style="font-size:8.98246px;fill:#1a1e2a;fill-opacity:1;stroke:none;stroke-width:7.58545"
         id="rect5645"
         width="17.5"
         height="17.5"
         x="-349.37503"
         y="-165.00002"
         inkscape:tile-cx="-340.62502"
         inkscape:tile-cy="-156.25002"
         inkscape:tile-w="17.5"
         inkscape:tile-h="17.500001"
         inkscape:tile-x0="-349.37502"
         inkscape:tile-y0="-165.00002"
         inkscape:export-filename=".\whale-color-palette.svg"
         inkscape:export-xdpi="96"
         inkscape:export-ydpi="96" />
      <rect
         style="font-size:8.98246px;fill:#ffffff;fill-opacity:1;stroke:none;stroke-width:7.58545"
         id="use7482"
         width="17.5"
         height="17.5"
         x="-323.12503"
         y="-165.00002"
         inkscape:tile-x0="-349.37502"
         inkscape:tile-y0="-165.00002" />
      <rect
         style="font-size:8.98246px;fill:#242d42;fill-opacity:1;stroke:none;stroke-width:7.58545"
         id="use7484"
         width="17.5"
         height="17.5"
         x="-296.87503"
         y="-165.00002"
         inkscape:tile-x0="-349.37502"
         inkscape:tile-y0="-165.00002" />
      <rect
         style="font-size:8.98246px;fill:#212739;fill-opacity:1;stroke:none;stroke-width:7.58545"
         id="use7486"
         width="17.5"
         height="17.5"
         x="-270.62503"
         y="-165.00002"
         inkscape:tile-x0="-349.37502"
         inkscape:tile-y0="-165.00002" />
      <rect
         style="font-size:8.98246px;fill:#5eadfc;fill-opacity:1;stroke:none;stroke-width:7.58545"
         id="use7488"
         width="17.5"
         height="17.5"
         x="-244.37503"
         y="-165.00002"
         inkscape:tile-x0="-349.37502"
         inkscape:tile-y0="-165.00002" />
      <rect
         style="font-size:8.98246px;fill:#6a6f87;fill-opacity:1;stroke:none;stroke-width:7.58545"
         id="use7490"
         width="17.5"
         height="17.5"
         x="-218.12503"
         y="-165.00002"
         inkscape:tile-x0="-349.37502"
         inkscape:tile-y0="-165.00002" />
      <rect
         style="font-size:8.98246px;fill:#fa5ead;fill-opacity:1;stroke:none;stroke-width:7.58545"
         id="use7492"
         width="17.5"
         height="17.5"
         x="-191.87503"
         y="-165.00002"
         inkscape:tile-x0="-349.37502"
         inkscape:tile-y0="-165.00002" />
      <rect
         style="font-size:8.98246px;fill:#00fbad;fill-opacity:1;stroke:none;stroke-width:7.58545"
         id="use7494"
         width="17.5"
         height="17.5"
         x="-165.62503"
         y="-165.00002"
         inkscape:tile-x0="-349.37502"
         inkscape:tile-y0="-165.00002" />
    </g>
    <text
       xml:space="preserve"
       style="font-size:8.98246px;fill:#ffff00;stroke-width:12.113"
       x="-520.99567"
       y="-168.74321"
       id="text2334"
       inkscape:label="elephant-original"><tspan
         sodipodi:role="line"
         id="tspan2318"
         x="-520.99567"
         y="-168.74321"
         style="font-style:normal;font-variant:normal;font-weight:normal;font-stretch:normal;font-family:'CaskaydiaCove Nerd Font Mono';-inkscape-font-specification:'CaskaydiaCove Nerd Font Mono';fill:#ffff00;stroke-width:12.113">  _____,---,_____   </tspan><tspan
         sodipodi:role="line"
         x="-520.99567"
         y="-157.41643"
         id="tspan2320"
         style="font-style:normal;font-variant:normal;font-weight:normal;font-stretch:normal;font-family:'CaskaydiaCove Nerd Font Mono';-inkscape-font-specification:'CaskaydiaCove Nerd Font Mono';fill:#ffff00;stroke-width:12.113"> /    /     \    \  </tspan><tspan
         sodipodi:role="line"
         x="-520.99567"
         y="-146.08965"
         id="tspan2322"
         style="font-style:normal;font-variant:normal;font-weight:normal;font-stretch:normal;font-family:'CaskaydiaCove Nerd Font Mono';-inkscape-font-specification:'CaskaydiaCove Nerd Font Mono';fill:#ffff00;stroke-width:12.113">|    {       }    | </tspan><tspan
         sodipodi:role="line"
         x="-520.99567"
         y="-134.76286"
         id="tspan2324"
         style="font-style:normal;font-variant:normal;font-weight:normal;font-stretch:normal;font-family:'CaskaydiaCove Nerd Font Mono';-inkscape-font-specification:'CaskaydiaCove Nerd Font Mono';fill:#ffff00;stroke-width:12.113"> \_   \     /   _/  </tspan><tspan
         sodipodi:role="line"
         x="-520.99567"
         y="-123.43607"
         id="tspan2326"
         style="font-style:normal;font-variant:normal;font-weight:normal;font-stretch:normal;font-family:'CaskaydiaCove Nerd Font Mono';-inkscape-font-specification:'CaskaydiaCove Nerd Font Mono';fill:#ffff00;stroke-width:12.113">   \_&gt;/\| |/\&lt;_/    </tspan><tspan
         sodipodi:role="line"
         x="-520.99567"
         y="-112.10929"
         id="tspan2328"
         style="font-style:normal;font-variant:normal;font-weight:normal;font-stretch:normal;font-family:'CaskaydiaCove Nerd Font Mono';-inkscape-font-specification:'CaskaydiaCove Nerd Font Mono';fill:#ffff00;stroke-width:12.113">  .__/ /| |\ \__.   </tspan><tspan
         sodipodi:role="line"
         x="-520.99567"
         y="-100.78251"
         id="tspan2330"
         style="font-style:normal;font-variant:normal;font-weight:normal;font-stretch:normal;font-family:'CaskaydiaCove Nerd Font Mono';-inkscape-font-specification:'CaskaydiaCove Nerd Font Mono';fill:#ffff00;stroke-width:12.113">   ^--' |_| '--^    </tspan><tspan
         sodipodi:role="line"
         x="-520.99567"
         y="-89.455727"
         id="tspan2332"
         style="font-style:normal;font-variant:normal;font-weight:normal;font-stretch:normal;font-family:'CaskaydiaCove Nerd Font Mono';-inkscape-font-specification:'CaskaydiaCove Nerd Font Mono';fill:#ffff00;stroke-width:12.113">        └─┘   </tspan></text>
    <use
       x="0"
       y="0"
       xlink:href="#g16373"
       id="use16858"
       inkscape:tile-cx="-323.77757"
       inkscape:tile-cy="31.335984"
       inkscape:tile-w="76.187319"
       inkscape:tile-h="64.107239"
       inkscape:tile-x0="-361.49367"
       inkscape:tile-y0="-0.34210661" />
  </g>
</svg>
